<?xml version="1.0" encoding="UTF-8" standalone="no"?>
<!-- Created with Inkscape (http://www.inkscape.org/) -->

<svg
   width="104mm"
   height="97mm"
   viewBox="0 0 104 97"
   version="1.1"
   id="svg5"
   xml:space="preserve"
   inkscape:version="1.3 (1:1.3+202307231459+0e150ed6c4)"
   sodipodi:docname="scheme.svg"
   xmlns:inkscape="http://www.inkscape.org/namespaces/inkscape"
   xmlns:sodipodi="http://sodipodi.sourceforge.net/DTD/sodipodi-0.dtd"
   xmlns="http://www.w3.org/2000/svg"
   xmlns:svg="http://www.w3.org/2000/svg"><sodipodi:namedview
     id="namedview7"
     pagecolor="#ffffff"
     bordercolor="#000000"
     borderopacity="0.25"
     inkscape:showpageshadow="2"
     inkscape:pageopacity="0.0"
     inkscape:pagecheckerboard="0"
     inkscape:deskcolor="#d1d1d1"
     inkscape:document-units="mm"
     showgrid="false"
     inkscape:zoom="1.3149474"
     inkscape:cx="242.59526"
     inkscape:cy="199.62776"
     inkscape:window-width="1920"
     inkscape:window-height="1043"
     inkscape:window-x="1680"
     inkscape:window-y="0"
     inkscape:window-maximized="1"
     inkscape:current-layer="svg5"
     showguides="false"><sodipodi:guide
       position="35.890039,25"
       orientation="0,1"
       id="guide342"
       inkscape:locked="false"
       inkscape:label=""
       inkscape:color="rgb(0,134,229)" /><sodipodi:guide
       position="35.93023,18"
       orientation="0,1"
       id="guide344"
       inkscape:locked="false"
       inkscape:label=""
       inkscape:color="rgb(0,134,229)" /><sodipodi:guide
       position="37.095752,11"
       orientation="0,1"
       id="guide346"
       inkscape:locked="false"
       inkscape:label=""
       inkscape:color="rgb(0,134,229)" /><sodipodi:guide
       position="40.310985,4.0000001"
       orientation="0,1"
       id="guide348"
       inkscape:locked="false"
       inkscape:label=""
       inkscape:color="rgb(0,134,229)" /></sodipodi:namedview><defs
     id="defs2"><marker
       style="overflow:visible"
       id="marker3923"
       refX="0"
       refY="0"
       orient="auto-start-reverse"
       inkscape:stockid="TriangleStart"
       markerWidth="5.3244081"
       markerHeight="6.155385"
       viewBox="0 0 5.3244081 6.1553851"
       inkscape:isstock="true"
       inkscape:collect="always"
       preserveAspectRatio="xMidYMid"><path
         transform="scale(0.5)"
         style="fill:context-stroke;fill-rule:evenodd;stroke:context-stroke;stroke-width:1pt"
         d="M 5.77,0 -2.88,5 V -5 Z"
         id="path3921" /></marker><marker
       style="overflow:visible"
       id="marker3857"
       refX="0"
       refY="0"
       orient="auto-start-reverse"
       inkscape:stockid="TriangleStart"
       markerWidth="5.3244081"
       markerHeight="6.155385"
       viewBox="0 0 5.3244081 6.1553851"
       inkscape:isstock="true"
       inkscape:collect="always"
       preserveAspectRatio="xMidYMid"><path
         transform="scale(0.5)"
         style="fill:context-stroke;fill-rule:evenodd;stroke:context-stroke;stroke-width:1pt"
         d="M 5.77,0 -2.88,5 V -5 Z"
         id="path3855" /></marker><marker
       style="overflow:visible"
       id="marker3502"
       refX="0"
       refY="0"
       orient="auto-start-reverse"
       inkscape:stockid="TriangleStart"
       markerWidth="5.3244081"
       markerHeight="6.155385"
       viewBox="0 0 5.3244081 6.1553851"
       inkscape:isstock="true"
       inkscape:collect="always"
       preserveAspectRatio="xMidYMid"><path
         transform="scale(0.5)"
         style="fill:context-stroke;fill-rule:evenodd;stroke:context-stroke;stroke-width:1pt"
         d="M 5.77,0 -2.88,5 V -5 Z"
         id="path3500" /></marker><rect
       x="230.82243"
       y="49.291218"
       width="156.74072"
       height="49.411526"
       id="rect400" /><rect
       x="230.82243"
       y="49.291218"
       width="156.74072"
       height="49.411526"
       id="rect400-3" /><rect
       x="230.82243"
       y="49.291218"
       width="156.74072"
       height="49.411526"
       id="rect400-3-7" /><rect
       x="230.82243"
       y="49.291218"
       width="156.74072"
       height="49.411526"
       id="rect400-3-5" /><rect
       x="230.82243"
       y="49.291218"
       width="156.74072"
       height="49.411526"
       id="rect400-3-5-2" /><rect
       x="230.82243"
       y="49.291218"
       width="156.74072"
       height="49.411526"
       id="rect400-3-5-2-0" /><rect
       x="230.82243"
       y="49.291218"
       width="156.74072"
       height="49.411526"
       id="rect400-3-5-7" /><marker
       style="overflow:visible"
       id="marker3857-0"
       refX="0"
       refY="0"
       orient="auto-start-reverse"
       inkscape:stockid="TriangleStart"
       markerWidth="5.3244081"
       markerHeight="6.155385"
       viewBox="0 0 5.3244081 6.1553851"
       inkscape:isstock="true"
       inkscape:collect="always"
       preserveAspectRatio="xMidYMid"><path
         transform="scale(0.5)"
         style="fill:context-stroke;fill-rule:evenodd;stroke:context-stroke;stroke-width:1pt"
         d="M 5.77,0 -2.88,5 V -5 Z"
         id="path3855-2" /></marker></defs><g
     inkscape:label="Layer 1"
     inkscape:groupmode="layer"
     id="layer1"><path
       d="M 7.6245933,58.680081 H 32.624594 V 83.680082 H 7.6245933 Z m 0,0 H 32.624594 V 83.680082 H 7.6245933 Z"
       fill="none"
       id="path252"
       style="stroke-width:1.04167" /><path
       d="M 19.513627,36.607644 H 39.100222 V 56.194239 H 19.513627 Z"
       fill="none"
       id="path264"
       style="stroke-width:0.816108" /><path
       d="M 20.940702,40.93481 17.67627,37.678539 14.411837,40.93481 h 2.448324 v 5.720918 h 1.632217 V 40.93481 Z m 1.632216,11.433674 3.264433,-3.256271 H 23.389026 V 43.391295 H 21.75681 v 5.720918 h -2.448324 z"
       id="path266"
       style="fill:#000000;stroke-width:0.816108" /><g
       style="fill:#000000;stroke:none;stroke-opacity:1"
       id="g144"
       transform="matrix(1.0416667,0,0,1.0416667,7.6245933,4.7753336)"><path
         d="M 0,0 H 24 V 24 H 0 Z"
         fill="none"
         id="path132"
         style="stroke:none;stroke-opacity:1" /><path
         d="m 20,18 c 1.1,0 1.99,-0.9 1.99,-2 L 22,6 C 22,4.9 21.1,4 20,4 H 4 C 2.9,4 2,4.9 2,6 v 10 c 0,1.1 0.9,2 2,2 H 0 v 2 H 24 V 18 Z M 4,6 H 20 V 16 H 4 Z"
         id="path134"
         style="stroke:none;stroke-opacity:1" /></g><text
       xml:space="preserve"
       transform="matrix(0.26458333,0,0,0.26458333,-61.679734,-12.681099)"
       id="text398"
       style="font-size:21.3333px;font-family:DejaVu Sans;-inkscape-font-specification:DejaVu Sans;text-align:center;white-space:pre;shape-inside:url(#rect400);display:inline;fill:none;stroke-width:0.827717;stroke-linecap:round;stroke-linejoin:round"><tspan
         x="235.57792"
         y="68.165986"
         id="tspan10"><tspan
           style="fill:#000000"
           id="tspan9">Qibolab client</tspan></tspan></text><text
       xml:space="preserve"
       transform="matrix(0.26458333,0,0,0.26458333,-36.071256,67.183254)"
       id="text398-6-6"
       style="font-size:13.3333px;font-family:DejaVu Sans;-inkscape-font-specification:DejaVu Sans;text-align:center;white-space:pre;shape-inside:url(#rect400-3-5);display:inline;fill:#000000;fill-opacity:1;stroke-width:0.827717;stroke-linecap:round;stroke-linejoin:round"><tspan
         x="277.26864"
         y="61.087861"
         id="tspan11">Drive line</tspan></text><text
       xml:space="preserve"
       transform="matrix(0.26458333,0,0,0.26458333,-36.753874,74.756471)"
       id="text398-6-6-92"
       style="font-size:13.3333px;font-family:DejaVu Sans;-inkscape-font-specification:DejaVu Sans;text-align:center;white-space:pre;shape-inside:url(#rect400-3-5-7);display:inline;fill:#000000;fill-opacity:1;stroke-width:0.827717;stroke-linecap:round;stroke-linejoin:round"><tspan
         x="281.18464"
         y="61.087861"
         id="tspan12">Flux line</tspan></text><text
       xml:space="preserve"
       transform="matrix(0.26458333,0,0,0.26458333,-33.822311,60.454529)"
       id="text398-6-6-9"
       style="font-size:13.3333px;font-family:DejaVu Sans;-inkscape-font-specification:DejaVu Sans;text-align:center;white-space:pre;shape-inside:url(#rect400-3-5-2);display:inline;fill:#000000;fill-opacity:1;stroke-width:0.827717;stroke-linecap:round;stroke-linejoin:round"><tspan
         x="267.37283"
         y="61.087861"
         id="tspan13">Readout line</tspan></text><text
       xml:space="preserve"
       transform="matrix(0.26458333,0,0,0.26458333,-33.03209,53.227792)"
       id="text398-6-6-9-9"
       style="font-size:13.3333px;font-family:DejaVu Sans;-inkscape-font-specification:DejaVu Sans;text-align:center;white-space:pre;shape-inside:url(#rect400-3-5-2-0);display:inline;fill:#000000;fill-opacity:1;stroke-width:0.827717;stroke-linecap:round;stroke-linejoin:round"><tspan
         x="263.29406"
         y="61.087861"
         id="tspan14">Feedback line</tspan></text><path
       style="fill:none;fill-opacity:1;stroke:#000000;stroke-width:0.400744;stroke-linecap:round;stroke-linejoin:round;stroke-dasharray:none;stroke-dashoffset:0;stroke-opacity:1;marker-end:url(#marker3502)"
       d="M 65.099649,45.820451 V 71.978457 H 34.92687"
       id="path3418"
       sodipodi:nodetypes="ccc" /><path
       style="fill:none;fill-opacity:1;stroke:#000000;stroke-width:0.397701;stroke-linecap:round;stroke-linejoin:round;stroke-dasharray:none;stroke-dashoffset:0;stroke-opacity:1;marker-start:url(#marker3923)"
       d="M 75.056657,47.053281 V 78.977639 H 33.806097"
       id="path3746"
       sodipodi:nodetypes="ccc" /><path
       style="fill:none;fill-opacity:1;stroke:#000000;stroke-width:0.402192;stroke-linecap:round;stroke-linejoin:round;stroke-dasharray:none;stroke-dashoffset:0;stroke-opacity:1;marker-start:url(#marker3857)"
       d="m 85.150336,47.014646 v 39.00297 H 33.761425"
       id="path3748"
       sodipodi:nodetypes="ccc" /><rect
       style="fill:#ffffff;fill-opacity:1;stroke:#000000;stroke-width:0.29959;stroke-linecap:round;stroke-linejoin:round;stroke-dasharray:none;stroke-opacity:1"
       id="rect1151"
       width="44.372246"
       height="24.140568"
       x="57.875793"
       y="19.460173"
       ry="12.070284" /><g
       style="fill:#000000"
       id="g290"
       transform="matrix(0.63097379,0,0,0.63097379,72.490235,26.867764)"><path
         d="M 0,0 H 24 V 24 H 0 Z"
         fill="none"
         id="path278" /><path
         d="M 15,9 H 9 v 6 h 6 z m -2,4 h -2 v -2 h 2 z m 8,-2 V 9 H 19 V 7 C 19,5.9 18.1,5 17,5 H 15 V 3 H 13 V 5 H 11 V 3 H 9 V 5 H 7 C 5.9,5 5,5.9 5,7 V 9 H 3 v 2 h 2 v 2 H 3 v 2 h 2 v 2 c 0,1.1 0.9,2 2,2 h 2 v 2 h 2 v -2 h 2 v 2 h 2 v -2 h 2 c 1.1,0 2,-0.9 2,-2 v -2 h 2 v -2 h -2 v -2 z m -4,6 H 7 V 7 h 10 z"
         id="path280" /></g><text
       xml:space="preserve"
       transform="matrix(0.26458333,0,0,0.26458333,-1.8073243,7.5883287)"
       id="text398-6-5"
       style="font-size:21.3333px;font-family:DejaVu Sans;-inkscape-font-specification:DejaVu Sans;text-align:center;white-space:pre;shape-inside:url(#rect400-3-7);display:inline;fill:#000000;fill-opacity:1;stroke-width:0.827717;stroke-linecap:round;stroke-linejoin:round"><tspan
         x="286.557"
         y="68.165986"
         id="tspan15">QPU</tspan></text><path
       style="fill:none;fill-opacity:1;stroke:#000000;stroke-width:0.400069;stroke-linecap:round;stroke-linejoin:round;stroke-dasharray:1.20021, 1.20021;stroke-dashoffset:0;stroke-opacity:1;marker-start:url(#marker3857-0)"
       d="M 95.133675,47.04625 V 92.979719 H 33.752126"
       id="path3748-3"
       sodipodi:nodetypes="ccc" /><text
       xml:space="preserve"
       transform="matrix(0.26458333,0,0,0.26458333,-61.744648,45.231876)"
       id="text398-6"
       style="font-size:21.3333px;font-family:DejaVu Sans;-inkscape-font-specification:DejaVu Sans;text-align:center;white-space:pre;shape-inside:url(#rect400-3);display:inline;fill:#000000;fill-opacity:1;stroke-width:0.827717;stroke-linecap:round;stroke-linejoin:round"><tspan
         x="270.63515"
         y="68.165986"
         id="tspan16">Control </tspan><tspan
         x="230.82227"
         y="117.5781"
         id="tspan18"><tspan
           dx="0 13.541645 13.124979 12.624979 5.9270744 11.729149 13.124981"
           id="tspan17">devices</tspan></tspan></text><path
       d="m -35.337028,22.234053 h 22.93689 v 22.93689 h -22.93689 z"
       fill="none"
       id="path19919"
       style="stroke-width:0.955704" /><g
       id="g607"
       transform="matrix(1.2091459,0,0,1.2091459,34.946083,16.058647)"><path
         d="M -21.824531,59.531574 H -2.7104565 V 55.708759 H -21.824531 Z m 1.911408,-2.867111 h 1.911407 v 1.911407 h -1.911407 z m -1.911408,-12.424149 v 3.822815 h 19.1140745 v -3.822815 z m 3.822815,2.867111 h -1.911407 v -1.911407 h 1.911407 z m -3.822815,6.689926 H -2.7104565 V 49.974536 H -21.824531 Z m 1.911408,-2.867111 h 1.911407 v 1.911408 h -1.911407 z"
         id="path19921"
         style="fill:#000000;stroke-width:0.955704" /><path
         d="M -21.805175,65.268677 H -2.6911022 V 61.445862 H -21.805175 Z m 1.911408,-2.867111 h 1.911407 v 1.911407 h -1.911407 z m -1.911408,-12.424149 v 3.822815 h 19.1140728 v -3.822815 z m 3.822815,2.867111 h -1.911407 v -1.911407 h 1.911407 z m -3.822815,6.689926 H -2.6911022 V 55.711639 H -21.805175 Z m 1.911408,-2.867111 h 1.911407 v 1.911408 h -1.911407 z"
         id="path19921-3"
         style="fill:#000000;stroke-width:0.955704" /></g></g></svg>
